# xmcd CD database file generated by OrangeCD 5.2
#
# Track frame offsets:
#	150
#	14902
#	35324
#	46832
#	58044
#	79759
#	96079
#	108878
#	123127
#	143236
#	155845
#	168090
#	181649
#	200022
#	211957
#	229677
#	244823
#	257861
#	276614
#	289930
#	301853
#	321950
#
# Disc length: 4647 seconds
#
# Revision: 0
# Processed by: cddbd v1.5.2PL0 Copyright (c) Steve Scherf et al.
# Submitted via: OrangeCD 5.2
#
DISCID=3b122516
DTITLE=Various Artist - Vintage Motown
DYEAR=2006
DGENRE=Dance Motown
TTITLE0=Diana Ross and The Temptations - My Guy My Girl
TTITLE1=Ruby Turner and The Temptations - Just My Imagination
TTITLE2=Jr. Walker and The All Stars - What Does It Take (To Win Your Love)
TTITLE3=The Temptations - Beauty Is Only Skin Deep
TTITLE4=The Temptations - Lady Soul
TTITLE5=The Pointer Sisters - Heaven Must Of Sent You (Into My Life) MOTOWN
TTITLE6=Four Tops - I Can't Help Myself (Sugar Pie Honey Bunch)
TTITLE7=Gladys Knight and The Pips - Everybody Needs Love
TTITLE8=The Commodores - Easy
TTITLE9=Marvin Gaye - Stuborn Kind Of Fellow
TTITLE10=The Temptations - The Way You Do The Things You Do
TTITLE11=The Temptations - My Girl
TTITLE12=Marvin Gaye - Let's Get It On
TTITLE13=The Temptations - Ain't Too Proud To Beg
TTITLE14=Stevie Wonder - Sir Duke
TTITLE15=The Velvelettes - Everybody Needs Love
TTITLE16=The Temptations - Since I Lost My Baby
TTITLE17=Diana Ross - Upside Down
TTITLE18=Diana Ross - Why Do Fools Fall In Love
TTITLE19=Stevie Wonder - I Was Made To Love Her
TTITLE20=The Temptations - Life Is But A Dream
TTITLE21=The Temptations - For Your Love   You Send Me (Medley)
EXTD=
EXTT0=
EXTT1=
EXTT2=
EXTT3=
EXTT4=
EXTT5=
EXTT6=
EXTT7=
EXTT8=
EXTT9=
EXTT10=
EXTT11=
EXTT12=
EXTT13=
EXTT14=
EXTT15=
EXTT16=
EXTT17=
EXTT18=
EXTT19=
EXTT20=
EXTT21=
PLAYORDER=
